<svg xmlns="http://www.w3.org/2000/svg" width="1600" height="520" viewBox="0 0 1600 520" role="img" aria-label="Exotec Knowledge and Developer Portal">
  <rect width="1600" height="520" fill="#F6F6F6"/>
  <rect x="0" y="0" width="1600" height="18" fill="#000000"/>
  <circle cx="1252" cy="180" r="210" fill="#28AFB9" opacity=".14"/>
  <circle cx="1370" cy="336" r="178" fill="#000000" opacity=".06"/>
  <rect x="1030" y="116" width="370" height="74" rx="4" fill="#FFFFFF" stroke="#DCDCDC"/>
  <rect x="1064" y="146" width="104" height="12" rx="6" fill="#000000"/>
  <rect x="1190" y="146" width="154" height="12" rx="6" fill="#28AFB9"/>
  <rect x="1030" y="214" width="452" height="74" rx="4" fill="#FFFFFF" stroke="#DCDCDC"/>
  <rect x="1064" y="244" width="86" height="12" rx="6" fill="#000000"/>
  <rect x="1172" y="244" width="244" height="12" rx="6" fill="#28AFB9"/>
  <rect x="1030" y="312" width="318" height="74" rx="4" fill="#FFFFFF" stroke="#DCDCDC"/>
  <rect x="1064" y="342" width="72" height="12" rx="6" fill="#000000"/>
  <rect x="1158" y="342" width="126" height="12" rx="6" fill="#28AFB9"/>
  <text x="96" y="188" font-family="Arial, Helvetica, sans-serif" font-size="92" font-weight="700" fill="#000000" letter-spacing="0">Exotec</text>
  <text x="102" y="254" font-family="Arial, Helvetica, sans-serif" font-size="31" fill="#262626">Knowledge governance, versioned docs, and API references</text>
  <rect x="102" y="326" width="292" height="44" rx="4" fill="#28AFB9"/>
  <text x="128" y="355" font-family="Arial, Helvetica, sans-serif" font-size="18" font-weight="700" fill="#000000">Warehouse operations portal</text>
</svg>
